<svg width="20" height="20" viewBox="0 0 20 20" fill="none" xmlns="http://www.w3.org/2000/svg">
    <path fill-rule="evenodd" clip-rule="evenodd" d="M10 1.75C5.44321 1.75 1.75 5.44321 1.75 10C1.75 14.5568 5.44321 18.25 10 18.25C14.5568 18.25 18.25 14.5568 18.25 10C18.25 5.44321 14.5568 1.75 10 1.75ZM0.25 10C0.25 4.61479 4.61479 0.25 10 0.25C15.3852 0.25 19.75 4.61479 19.75 10C19.75 15.3852 15.3852 19.75 10 19.75C4.61479 19.75 0.25 15.3852 0.25 10ZM10 5.25C10.4142 5.25 10.75 5.58579 10.75 6V9.25H14C14.4142 9.25 14.75 9.58579 14.75 10C14.75 10.4142 14.4142 10.75 14 10.75H10.75V14C10.75 14.4142 10.4142 14.75 10 14.75C9.58579 14.75 9.25 14.4142 9.25 14V10.75H6C5.58579 10.75 5.25 10.4142 5.25 10C5.25 9.58579 5.58579 9.25 6 9.25H9.25V6C9.25 5.58579 9.58579 5.25 10 5.25Z" fill="#730641"/>
</svg>
