<svg width="24" height="24" viewBox="0 0 24 24" fill="none" xmlns="http://www.w3.org/2000/svg">
    <path opacity="0.1" fill-rule="evenodd" clip-rule="evenodd" d="M12 22C17.5228 22 22 17.5228 22 12C22 6.47715 17.5228 2 12 2C6.47715 2 2 6.47715 2 12C2 17.5228 6.47715 22 12 22ZM12 24C18.6274 24 24 18.6274 24 12C24 5.37258 18.6274 0 12 0C5.37258 0 0 5.37258 0 12C0 18.6274 5.37258 24 12 24Z" fill="#730641"/>
    <path d="M24 12C24 14.3734 23.2962 16.6935 21.9776 18.6668C20.6591 20.6402 18.7849 22.1783 16.5922 23.0866C14.3995 23.9948 11.9867 24.2324 9.65892 23.7694C7.33114 23.3064 5.19295 22.1635 3.51472 20.4853C1.83649 18.8071 0.693599 16.6689 0.230577 14.3411C-0.232446 12.0133 0.00519403 9.60051 0.913446 7.4078C1.8217 5.21509 3.35977 3.34094 5.33316 2.02236C7.30655 0.703788 9.62662 -2.83022e-08 12 0L12 1.99488C10.0212 1.99488 8.08679 2.58167 6.44145 3.68105C4.79612 4.78042 3.51374 6.34301 2.75648 8.17121C1.99921 9.9994 1.80108 12.0111 2.18713 13.9519C2.57318 15.8927 3.52607 17.6754 4.92531 19.0747C6.32455 20.4739 8.1073 21.4268 10.0481 21.8129C11.9889 22.1989 14.0006 22.0008 15.8288 21.2435C17.657 20.4863 19.2196 19.2039 20.319 17.5585C21.4183 15.9132 22.0051 13.9788 22.0051 12H24Z" fill="#730641"/>
</svg>
